<svg width="25" height="25" viewBox="0 0 25 25" fill="none" xmlns="http://www.w3.org/2000/svg">
<path d="M19.5 7.01733H16.5V6.01733C16.5 4.95647 16.0786 3.93905 15.3284 3.18891C14.5783 2.43876 13.5609 2.01733 12.5 2.01733C11.4391 2.01733 10.4217 2.43876 9.67157 3.18891C8.92143 3.93905 8.5 4.95647 8.5 6.01733V7.01733H5.5C5.23478 7.01733 4.98043 7.12269 4.79289 7.31023C4.60536 7.49776 4.5 7.75212 4.5 8.01733V19.0173C4.5 19.813 4.81607 20.576 5.37868 21.1387C5.94129 21.7013 6.70435 22.0173 7.5 22.0173H17.5C18.2956 22.0173 19.0587 21.7013 19.6213 21.1387C20.1839 20.576 20.5 19.813 20.5 19.0173V8.01733C20.5 7.75212 20.3946 7.49776 20.2071 7.31023C20.0196 7.12269 19.7652 7.01733 19.5 7.01733ZM10.5 6.01733C10.5 5.4869 10.7107 4.97819 11.0858 4.60312C11.4609 4.22805 11.9696 4.01733 12.5 4.01733C13.0304 4.01733 13.5391 4.22805 13.9142 4.60312C14.2893 4.97819 14.5 5.4869 14.5 6.01733V7.01733H10.5V6.01733ZM18.5 19.0173C18.5 19.2826 18.3946 19.5369 18.2071 19.7244C18.0196 19.912 17.7652 20.0173 17.5 20.0173H7.5C7.23478 20.0173 6.98043 19.912 6.79289 19.7244C6.60536 19.5369 6.5 19.2826 6.5 19.0173V9.01733H8.5V10.0173C8.5 10.2826 8.60536 10.5369 8.79289 10.7244C8.98043 10.912 9.23478 11.0173 9.5 11.0173C9.76522 11.0173 10.0196 10.912 10.2071 10.7244C10.3946 10.5369 10.5 10.2826 10.5 10.0173V9.01733H14.5V10.0173C14.5 10.2826 14.6054 10.5369 14.7929 10.7244C14.9804 10.912 15.2348 11.0173 15.5 11.0173C15.7652 11.0173 16.0196 10.912 16.2071 10.7244C16.3946 10.5369 16.5 10.2826 16.5 10.0173V9.01733H18.5V19.0173Z" fill="white"/>
</svg>
