<svg width="18" height="21" viewBox="0 0 18 21" fill="none" xmlns="http://www.w3.org/2000/svg">
<path d="M17.4908 6.21236C17.4851 6.18599 17.4851 6.15872 17.4908 6.13236C17.4859 6.10928 17.4859 6.08544 17.4908 6.06236V5.97236L17.4308 5.82236C17.4064 5.78143 17.3761 5.74435 17.3408 5.71236L17.2508 5.63236H17.2008L13.2608 3.14236L9.5408 0.842357C9.45473 0.774087 9.35625 0.723147 9.2508 0.692357H9.1708C9.08142 0.677438 8.99018 0.677438 8.9008 0.692357H8.8008C8.68464 0.718049 8.57327 0.761923 8.4708 0.822357L1.0008 5.47236L0.910801 5.54236L0.8208 5.62236L0.720801 5.69236L0.670801 5.75236L0.6108 5.90236V5.99236V6.05236C0.601087 6.11867 0.601087 6.18604 0.6108 6.25236V14.9824C0.61046 15.1523 0.653437 15.3195 0.735672 15.4683C0.817907 15.617 0.936688 15.7423 1.0808 15.8324L8.5808 20.4724L8.7308 20.5324H8.8108C8.97998 20.586 9.16162 20.586 9.3308 20.5324H9.4108L9.5608 20.4724L17.0008 15.9024C17.1449 15.8123 17.2637 15.687 17.3459 15.5383C17.4282 15.3895 17.4711 15.2223 17.4708 15.0524V6.32236C17.4708 6.32236 17.4908 6.25236 17.4908 6.21236ZM9.0008 2.86236L10.7808 3.96236L5.1908 7.42236L3.4008 6.32236L9.0008 2.86236ZM8.0008 17.8624L2.5008 14.5024V8.11236L8.0008 11.5124V17.8624ZM9.0008 9.75236L7.0908 8.60236L12.6808 5.13236L14.6008 6.32236L9.0008 9.75236ZM15.5008 14.4724L10.0008 17.8924V11.5124L15.5008 8.11236V14.4724Z" fill="white"/>
</svg>
