<svg width="17" height="21" viewBox="0 0 17 21" fill="none" xmlns="http://www.w3.org/2000/svg">
<path d="M15.5 5.77686H12.5V4.77686C12.5 3.71599 12.0786 2.69857 11.3284 1.94843C10.5783 1.19828 9.56087 0.776855 8.5 0.776855C7.43913 0.776855 6.42172 1.19828 5.67157 1.94843C4.92143 2.69857 4.5 3.71599 4.5 4.77686V5.77686H1.5C1.23478 5.77686 0.98043 5.88221 0.792893 6.06975C0.605357 6.25729 0.5 6.51164 0.5 6.77686V17.7769C0.5 18.5725 0.816071 19.3356 1.37868 19.8982C1.94129 20.4608 2.70435 20.7769 3.5 20.7769H13.5C14.2956 20.7769 15.0587 20.4608 15.6213 19.8982C16.1839 19.3356 16.5 18.5725 16.5 17.7769V6.77686C16.5 6.51164 16.3946 6.25729 16.2071 6.06975C16.0196 5.88221 15.7652 5.77686 15.5 5.77686ZM6.5 4.77686C6.5 4.24642 6.71071 3.73771 7.08579 3.36264C7.46086 2.98757 7.96957 2.77686 8.5 2.77686C9.03043 2.77686 9.53914 2.98757 9.91421 3.36264C10.2893 3.73771 10.5 4.24642 10.5 4.77686V5.77686H6.5V4.77686ZM14.5 17.7769C14.5 18.0421 14.3946 18.2964 14.2071 18.484C14.0196 18.6715 13.7652 18.7769 13.5 18.7769H3.5C3.23478 18.7769 2.98043 18.6715 2.79289 18.484C2.60536 18.2964 2.5 18.0421 2.5 17.7769V7.77686H4.5V8.77686C4.5 9.04207 4.60536 9.29643 4.79289 9.48396C4.98043 9.6715 5.23478 9.77686 5.5 9.77686C5.76522 9.77686 6.01957 9.6715 6.20711 9.48396C6.39464 9.29643 6.5 9.04207 6.5 8.77686V7.77686H10.5V8.77686C10.5 9.04207 10.6054 9.29643 10.7929 9.48396C10.9804 9.6715 11.2348 9.77686 11.5 9.77686C11.7652 9.77686 12.0196 9.6715 12.2071 9.48396C12.3946 9.29643 12.5 9.04207 12.5 8.77686V7.77686H14.5V17.7769Z" fill="white"/>
</svg>
