<svg width="17" height="21" viewBox="0 0 17 21" fill="none" xmlns="http://www.w3.org/2000/svg">
<path d="M15.7361 5.52788H12.7361V4.52788C12.7361 3.46701 12.3147 2.4496 11.5645 1.69945C10.8144 0.949305 9.79695 0.527878 8.73608 0.527878C7.67522 0.527878 6.6578 0.949305 5.90766 1.69945C5.15751 2.4496 4.73608 3.46701 4.73608 4.52788V5.52788H1.73608C1.47087 5.52788 1.21651 5.63323 1.02898 5.82077C0.841441 6.00831 0.736084 6.26266 0.736084 6.52788V17.5279C0.736084 18.3235 1.05215 19.0866 1.61476 19.6492C2.17737 20.2118 2.94043 20.5279 3.73608 20.5279H13.7361C14.5317 20.5279 15.2948 20.2118 15.8574 19.6492C16.42 19.0866 16.7361 18.3235 16.7361 17.5279V6.52788C16.7361 6.26266 16.6307 6.00831 16.4432 5.82077C16.2557 5.63323 16.0013 5.52788 15.7361 5.52788ZM6.73608 4.52788C6.73608 3.99744 6.9468 3.48874 7.32187 3.11366C7.69694 2.73859 8.20565 2.52788 8.73608 2.52788C9.26652 2.52788 9.77522 2.73859 10.1503 3.11366C10.5254 3.48874 10.7361 3.99744 10.7361 4.52788V5.52788H6.73608V4.52788ZM14.7361 17.5279C14.7361 17.7931 14.6307 18.0474 14.4432 18.235C14.2557 18.4225 14.0013 18.5279 13.7361 18.5279H3.73608C3.47087 18.5279 3.21651 18.4225 3.02898 18.235C2.84144 18.0474 2.73608 17.7931 2.73608 17.5279V7.52788H4.73608V8.52788C4.73608 8.79309 4.84144 9.04745 5.02898 9.23498C5.21651 9.42252 5.47087 9.52788 5.73608 9.52788C6.0013 9.52788 6.25565 9.42252 6.44319 9.23498C6.63073 9.04745 6.73608 8.79309 6.73608 8.52788V7.52788H10.7361V8.52788C10.7361 8.79309 10.8414 9.04745 11.029 9.23498C11.2165 9.42252 11.4709 9.52788 11.7361 9.52788C12.0013 9.52788 12.2557 9.42252 12.4432 9.23498C12.6307 9.04745 12.7361 8.79309 12.7361 8.52788V7.52788H14.7361V17.5279Z" fill="white"/>
</svg>
