<svg width="20" height="21" viewBox="0 0 20 21" fill="none" xmlns="http://www.w3.org/2000/svg">
<path d="M18.8701 15.6994L16.1601 11.0194C16.7146 10.0009 17.0035 8.85907 17.0001 7.6994C17.0001 5.84289 16.2626 4.06241 14.9498 2.74965C13.6371 1.4369 11.8566 0.699402 10.0001 0.699402C8.14356 0.699402 6.36308 1.4369 5.05033 2.74965C3.73757 4.06241 3.00007 5.84289 3.00007 7.6994C2.99663 8.85907 3.28553 10.0009 3.84007 11.0194L1.13007 15.6994C1.04213 15.8517 0.99592 16.0245 0.996094 16.2004C0.996268 16.3763 1.04282 16.549 1.13106 16.7011C1.2193 16.8533 1.34611 16.9794 1.49868 17.0669C1.65125 17.1544 1.8242 17.2001 2.00007 17.1994H4.87007L6.33007 19.6594C6.37929 19.7409 6.4399 19.815 6.51007 19.8794C6.69545 20.0581 6.9426 20.1584 7.20007 20.1594H7.34007C7.49104 20.1387 7.63529 20.0839 7.76181 19.9989C7.88833 19.914 7.99377 19.8013 8.07007 19.6694L10.0001 16.3494L11.9301 19.6994C12.0075 19.8294 12.1134 19.9402 12.2399 20.0233C12.3663 20.1065 12.51 20.1598 12.6601 20.1794H12.8001C13.061 20.181 13.3122 20.0805 13.5001 19.8994C13.5673 19.8387 13.6247 19.7678 13.6701 19.6894L15.1301 17.2294H18.0001C18.1763 17.2301 18.3495 17.1842 18.5023 17.0964C18.6551 17.0086 18.782 16.882 18.8701 16.7294C18.9635 16.5739 19.0129 16.3958 19.0129 16.2144C19.0129 16.033 18.9635 15.8549 18.8701 15.6994ZM7.19007 17.2294L6.30007 15.7394C6.21244 15.5916 6.08818 15.4688 5.9393 15.383C5.79041 15.2972 5.62192 15.2512 5.45007 15.2494H3.72007L5.15007 12.7694C6.1348 13.7183 7.37589 14.3579 8.72007 14.6094L7.19007 17.2294ZM10.0001 12.6994C9.01117 12.6994 8.04447 12.4062 7.22222 11.8567C6.39998 11.3073 5.75911 10.5264 5.38068 9.61282C5.00224 8.69919 4.90322 7.69386 5.09615 6.72395C5.28907 5.75405 5.76528 4.86313 6.46454 4.16387C7.1638 3.46461 8.05472 2.9884 9.02462 2.79548C9.99453 2.60255 10.9999 2.70157 11.9135 3.08C12.8271 3.45844 13.608 4.0993 14.1574 4.92155C14.7068 5.7438 15.0001 6.7105 15.0001 7.6994C15.0001 9.02548 14.4733 10.2973 13.5356 11.2349C12.5979 12.1726 11.3262 12.6994 10.0001 12.6994ZM14.5501 15.2494C14.3782 15.2512 14.2097 15.2972 14.0609 15.383C13.912 15.4688 13.7877 15.5916 13.7001 15.7394L12.8101 17.2294L11.2901 14.5794C12.6296 14.3228 13.866 13.6837 14.8501 12.7394L16.2801 15.2194L14.5501 15.2494Z" fill="#7DA966"/>
</svg>
