<svg width="17" height="17" viewBox="0 0 17 17" fill="none" xmlns="http://www.w3.org/2000/svg">
<path d="M15.791 7.2785H9.79102V1.2785C9.79102 1.01329 9.68566 0.758933 9.49812 0.571397C9.31059 0.38386 9.05623 0.278503 8.79102 0.278503C8.5258 0.278503 8.27145 0.38386 8.08391 0.571397C7.89637 0.758933 7.79102 1.01329 7.79102 1.2785V7.2785H1.79102C1.5258 7.2785 1.27145 7.38386 1.08391 7.5714C0.896373 7.75893 0.791016 8.01329 0.791016 8.2785C0.791016 8.54372 0.896373 8.79807 1.08391 8.98561C1.27145 9.17315 1.5258 9.2785 1.79102 9.2785H7.79102V15.2785C7.79102 15.5437 7.89637 15.7981 8.08391 15.9856C8.27145 16.1731 8.5258 16.2785 8.79102 16.2785C9.05623 16.2785 9.31059 16.1731 9.49812 15.9856C9.68566 15.7981 9.79102 15.5437 9.79102 15.2785V9.2785H15.791C16.0562 9.2785 16.3106 9.17315 16.4981 8.98561C16.6857 8.79807 16.791 8.54372 16.791 8.2785C16.791 8.01329 16.6857 7.75893 16.4981 7.5714C16.3106 7.38386 16.0562 7.2785 15.791 7.2785Z" fill="#2D8ECD"/>
</svg>
