<svg width="21" height="18" viewBox="0 0 21 18" fill="none" xmlns="http://www.w3.org/2000/svg">
<path d="M11.3 9.65036C11.8336 9.18849 12.2616 8.61724 12.5549 7.97538C12.8482 7.33352 13 6.63607 13 5.93036C13 4.60428 12.4732 3.33251 11.5355 2.39482C10.5979 1.45714 9.32608 0.930359 8 0.930359C6.67392 0.930359 5.40215 1.45714 4.46447 2.39482C3.52678 3.33251 3 4.60428 3 5.93036C2.99999 6.63607 3.1518 7.33352 3.44513 7.97538C3.73845 8.61724 4.16642 9.18849 4.7 9.65036C3.30014 10.2842 2.11247 11.3079 1.27898 12.5989C0.445495 13.8899 0.00147185 15.3937 0 16.9304C0 17.1956 0.105357 17.4499 0.292893 17.6375C0.48043 17.825 0.734784 17.9304 1 17.9304C1.26522 17.9304 1.51957 17.825 1.70711 17.6375C1.89464 17.4499 2 17.1956 2 16.9304C2 15.3391 2.63214 13.8129 3.75736 12.6877C4.88258 11.5625 6.4087 10.9304 8 10.9304C9.5913 10.9304 11.1174 11.5625 12.2426 12.6877C13.3679 13.8129 14 15.3391 14 16.9304C14 17.1956 14.1054 17.4499 14.2929 17.6375C14.4804 17.825 14.7348 17.9304 15 17.9304C15.2652 17.9304 15.5196 17.825 15.7071 17.6375C15.8946 17.4499 16 17.1956 16 16.9304C15.9985 15.3937 15.5545 13.8899 14.721 12.5989C13.8875 11.3079 12.6999 10.2842 11.3 9.65036ZM8 8.93036C7.40666 8.93036 6.82664 8.75441 6.33329 8.42477C5.83994 8.09512 5.45542 7.62659 5.22836 7.07841C5.0013 6.53023 4.94189 5.92703 5.05764 5.34509C5.1734 4.76314 5.45912 4.2286 5.87868 3.80904C6.29824 3.38948 6.83279 3.10376 7.41473 2.988C7.99667 2.87225 8.59987 2.93166 9.14805 3.15872C9.69623 3.38578 10.1648 3.7703 10.4944 4.26365C10.8241 4.757 11 5.33702 11 5.93036C11 6.72601 10.6839 7.48907 10.1213 8.05168C9.55871 8.61429 8.79565 8.93036 8 8.93036ZM19.71 6.56036C19.617 6.46663 19.5064 6.39224 19.3846 6.34147C19.2627 6.2907 19.132 6.26456 19 6.26456C18.868 6.26456 18.7373 6.2907 18.6154 6.34147C18.4936 6.39224 18.383 6.46663 18.29 6.56036L16.29 8.56036L15.67 7.93036C15.577 7.83663 15.4664 7.76224 15.3446 7.71147C15.2227 7.6607 15.092 7.63456 14.96 7.63456C14.828 7.63456 14.6973 7.6607 14.5754 7.71147C14.4536 7.76224 14.343 7.83663 14.25 7.93036C14.0637 8.11772 13.9592 8.37117 13.9592 8.63536C13.9592 8.89954 14.0637 9.153 14.25 9.34036L15.59 10.6804C15.7774 10.8666 16.0308 10.9712 16.295 10.9712C16.5592 10.9712 16.8126 10.8666 17 10.6804L19.67 8.01036C19.771 7.91968 19.8524 7.8094 19.9094 7.68624C19.9664 7.56308 19.9977 7.4296 20.0014 7.29395C20.0052 7.1583 19.9813 7.0233 19.9312 6.89718C19.8811 6.77107 19.8058 6.65646 19.71 6.56036Z" fill="#7DA966"/>
</svg>
