<svg width="21" height="21" viewBox="0 0 21 21" fill="none" xmlns="http://www.w3.org/2000/svg">
<path d="M14.1952 11.2376C15.1756 10.4663 15.8912 9.40853 16.2425 8.21155C16.5937 7.01457 16.5631 5.73787 16.155 4.55907C15.7469 3.38028 14.9815 2.358 13.9653 1.63446C12.9491 0.910925 11.7327 0.52211 10.4852 0.52211C9.23777 0.52211 8.02134 0.910925 7.00516 1.63446C5.98897 2.358 5.22357 3.38028 4.81544 4.55907C4.40731 5.73787 4.37674 7.01457 4.72799 8.21155C5.07924 9.40853 5.79483 10.4663 6.77523 11.2376C5.0953 11.9106 3.62951 13.027 2.53412 14.4675C1.43872 15.9081 0.754789 17.6189 0.555226 19.4176C0.540781 19.5489 0.552343 19.6818 0.589252 19.8087C0.62616 19.9355 0.687694 20.0539 0.770338 20.1569C0.937245 20.3651 1.18001 20.4984 1.44523 20.5276C1.71044 20.5568 1.97639 20.4794 2.18455 20.3125C2.39272 20.1456 2.52605 19.9028 2.55523 19.6376C2.77481 17.6828 3.70691 15.8774 5.17345 14.5664C6.63998 13.2554 8.53813 12.5306 10.5052 12.5306C12.4723 12.5306 14.3705 13.2554 15.837 14.5664C17.3035 15.8774 18.2356 17.6828 18.4552 19.6376C18.4824 19.8833 18.5997 20.1103 18.7843 20.2746C18.969 20.439 19.208 20.5291 19.4552 20.5276H19.5652C19.8274 20.4974 20.067 20.3649 20.2318 20.1589C20.3966 19.9528 20.4733 19.69 20.4452 19.4276C20.2447 17.6238 19.5571 15.9086 18.4561 14.4658C17.3551 13.023 15.8821 11.9071 14.1952 11.2376V11.2376ZM10.4852 10.5276C9.6941 10.5276 8.92074 10.293 8.26295 9.85348C7.60515 9.41396 7.09246 8.78924 6.78971 8.05834C6.48696 7.32744 6.40774 6.52317 6.56208 5.74724C6.71643 4.97132 7.09739 4.25859 7.6568 3.69918C8.21621 3.13977 8.92894 2.75881 9.70487 2.60446C10.4808 2.45012 11.2851 2.52934 12.016 2.83209C12.7469 3.13484 13.3716 3.64753 13.8111 4.30532C14.2506 4.96312 14.4852 5.73648 14.4852 6.52761C14.4852 7.58847 14.0638 8.60589 13.3137 9.35603C12.5635 10.1062 11.5461 10.5276 10.4852 10.5276Z" fill="white"/>
</svg>
