<svg width="21" height="21" viewBox="0 0 21 21" fill="none" xmlns="http://www.w3.org/2000/svg">
<path d="M3.8992 3.35746C2.50067 4.75598 1.54826 6.53781 1.16241 8.47762C0.776558 10.4174 0.974592 12.4281 1.73147 14.2554C2.48834 16.0826 3.77007 17.6444 5.41456 18.7432C7.05905 19.842 8.99245 20.4285 10.9703 20.4285C12.9481 20.4285 14.8815 19.842 16.526 18.7432C18.1705 17.6444 19.4522 16.0826 20.2091 14.2554C20.9659 12.4281 21.164 10.4174 20.7781 8.47762C20.3923 6.53781 19.4399 4.75598 18.0413 3.35746C17.1127 2.42887 16.0104 1.69228 14.7971 1.18973C13.5838 0.687181 12.2835 0.428525 10.9703 0.428525C9.65704 0.428525 8.35669 0.687182 7.14343 1.18973C5.93017 1.69228 4.82778 2.42887 3.8992 3.35746ZM16.6271 16.0854C15.5083 17.2042 14.0828 17.9661 12.531 18.2748C10.9791 18.5835 9.3706 18.4251 7.90879 17.8196C6.44699 17.2141 5.19756 16.1887 4.31851 14.8731C3.43946 13.5575 2.97026 12.0108 2.97026 10.4285C2.97026 8.84627 3.43946 7.29956 4.31851 5.98396C5.19756 4.66837 6.44699 3.64299 7.9088 3.03749C9.37061 2.43199 10.9791 2.27356 12.531 2.58224C14.0828 2.89092 15.5083 3.65285 16.6271 4.77167C18.1274 6.27196 18.9703 8.30679 18.9703 10.4285C18.9703 12.5503 18.1274 14.5851 16.6271 16.0854ZM13.0916 6.89299L10.9703 9.01431L8.84894 6.89299C8.66141 6.70545 8.40705 6.6001 8.14184 6.6001C7.87662 6.6001 7.62227 6.70545 7.43473 6.89299C7.24719 7.08053 7.14184 7.33488 7.14184 7.6001C7.14184 7.86531 7.24719 8.11967 7.43473 8.3072L9.55605 10.4285L7.43473 12.5498C7.24719 12.7374 7.14184 12.9917 7.14184 13.257C7.14184 13.5222 7.24719 13.7765 7.43473 13.9641C7.62226 14.1516 7.87662 14.257 8.14184 14.257C8.40705 14.257 8.66141 14.1516 8.84894 13.9641L10.9703 11.8427L13.0916 13.9641C13.2791 14.1516 13.5335 14.257 13.7987 14.257C14.0639 14.257 14.3183 14.1516 14.5058 13.9641C14.6933 13.7765 14.7987 13.5222 14.7987 13.257C14.7987 12.9917 14.6933 12.7374 14.5058 12.5498L12.3845 10.4285L14.5058 8.3072C14.6933 8.11967 14.7987 7.86531 14.7987 7.6001C14.7987 7.33488 14.6933 7.08053 14.5058 6.89299C14.3183 6.70545 14.0639 6.6001 13.7987 6.6001C13.5335 6.6001 13.2791 6.70545 13.0916 6.89299Z" fill="#2D8ECD"/>
</svg>
