<svg width="21" height="21" viewBox="0 0 21 21" fill="none" xmlns="http://www.w3.org/2000/svg">
<path d="M20.71 18.3179L17 14.6379C18.4401 12.8423 19.1375 10.5632 18.9488 8.26917C18.7601 5.97518 17.6997 3.84066 15.9855 2.30452C14.2714 0.76838 12.0338 -0.0526162 9.73295 0.0103442C7.43207 0.0733046 5.24275 1.01544 3.61517 2.64302C1.98759 4.2706 1.04546 6.45991 0.982497 8.7608C0.919537 11.0617 1.74053 13.2992 3.27667 15.0134C4.81281 16.7275 6.94733 17.788 9.24133 17.9767C11.5353 18.1654 13.8144 17.468 15.61 16.0279L19.29 19.7079C19.383 19.8016 19.4936 19.876 19.6154 19.9268C19.7373 19.9775 19.868 20.0037 20 20.0037C20.132 20.0037 20.2627 19.9775 20.3846 19.9268C20.5065 19.876 20.6171 19.8016 20.71 19.7079C20.8903 19.5214 20.991 19.2722 20.991 19.0129C20.991 18.7535 20.8903 18.5043 20.71 18.3179ZM10 16.0279C8.61556 16.0279 7.26218 15.6173 6.11103 14.8482C4.95989 14.079 4.06268 12.9857 3.53287 11.7067C3.00306 10.4276 2.86443 9.02011 3.13453 7.66224C3.40463 6.30437 4.07131 5.05709 5.05028 4.07813C6.02925 3.09916 7.27653 2.43247 8.63439 2.16238C9.99226 1.89228 11.3997 2.0309 12.6788 2.56072C13.9579 3.09053 15.0511 3.98774 15.8203 5.13888C16.5895 6.29003 17 7.6434 17 9.02787C17 10.8844 16.2625 12.6649 14.9498 13.9776C13.637 15.2904 11.8565 16.0279 10 16.0279Z" fill="#2D8ECD"/>
</svg>
