<svg width="55" height="33" viewBox="0 0 55 33" fill="none" xmlns="http://www.w3.org/2000/svg">
<g clip-path="url(#clip0_434_557)">
<path fill-rule="evenodd" clip-rule="evenodd" d="M23.7983 25.739C23.5825 25.562 23.4763 25.3241 23.4763 25.0247C23.4763 24.7219 23.5825 24.4837 23.7983 24.3067C24.0142 24.1299 24.3052 24.0415 24.6717 24.0415C25.0382 24.0415 25.326 24.1299 25.5419 24.3067C25.7576 24.4837 25.8673 24.7219 25.8673 25.0247C25.8673 25.3241 25.7576 25.562 25.5419 25.739C25.326 25.9159 25.0382 26.0044 24.6717 26.0044C24.3052 26.0044 24.0142 25.9159 23.7983 25.739ZM25.3054 25.0247C25.3054 24.6947 25.0587 24.4837 24.6717 24.4837C24.2847 24.4837 24.0381 24.6947 24.0381 25.0247C24.0381 25.3545 24.2847 25.562 24.6717 25.562C25.0587 25.562 25.3054 25.3545 25.3054 25.0247Z" fill="white"/>
<path fill-rule="evenodd" clip-rule="evenodd" d="M27.9369 24.0894H28.4849V25.957H27.9507V25.6679C27.8239 25.8754 27.5704 26.0049 27.2415 26.0049C26.9573 26.0049 26.7485 25.9334 26.5874 25.78C26.4195 25.6171 26.351 25.3993 26.351 25.001V24.0894H26.9025V25.0149C26.9025 25.2461 26.9539 25.3823 27.0669 25.4606C27.1627 25.5184 27.245 25.5421 27.3786 25.5421C27.6252 25.5421 27.8171 25.4163 27.8992 25.2088C27.9232 25.1511 27.9369 25.0692 27.9369 24.9707V24.0894Z" fill="white"/>
<path fill-rule="evenodd" clip-rule="evenodd" d="M30.5194 25.5148V25.957H29.8311C29.4508 25.957 29.2933 25.8073 29.2933 25.4534V24.5247H28.9438V24.0892H29.2933V23.5894H29.8448V24.0892H30.5194V24.5247H29.8448V25.3311C29.8448 25.4704 29.8927 25.5148 30.0604 25.5148H30.5194Z" fill="white"/>
<path fill-rule="evenodd" clip-rule="evenodd" d="M32.3083 25.739C32.0926 25.562 31.9863 25.3241 31.9863 25.0247C31.9863 24.7219 32.0926 24.4837 32.3083 24.3067C32.5242 24.1299 32.8153 24.0415 33.1818 24.0415C33.5483 24.0415 33.836 24.1299 34.0518 24.3067C34.2677 24.4837 34.3773 24.7219 34.3773 25.0247C34.3773 25.3241 34.2677 25.562 34.0518 25.739C33.836 25.9159 33.5483 26.0044 33.1818 26.0044C32.8153 26.0044 32.5242 25.9159 32.3083 25.739ZM33.8155 25.0247C33.8155 24.6947 33.5688 24.4837 33.1818 24.4837C32.7948 24.4837 32.5482 24.6947 32.5482 25.0247C32.5482 25.3545 32.7948 25.562 33.1818 25.562C33.5688 25.562 33.8155 25.3545 33.8155 25.0247Z" fill="white"/>
<path fill-rule="evenodd" clip-rule="evenodd" d="M36.1132 23.8345H35.7675C35.6269 23.8345 35.5721 23.8717 35.5721 23.9703V24.0894H36.1132V24.5248H35.5721V25.9572H35.0208V24.5248H34.7124V24.0894H35.0208V23.9467C35.0208 23.5827 35.2571 23.4126 35.74 23.4126H36.1132V23.8345Z" fill="white"/>
<path fill-rule="evenodd" clip-rule="evenodd" d="M39.0909 25.5148V25.957H38.4025C38.0222 25.957 37.8647 25.8073 37.8647 25.4534V24.5247H37.5153V24.0892H37.8647V23.5894H38.4161V24.0892H39.0909V24.5247H38.4161V25.3311C38.4161 25.4704 38.464 25.5148 38.6318 25.5148H39.0909Z" fill="white"/>
<path fill-rule="evenodd" clip-rule="evenodd" d="M39.635 25.9567V23.4121H40.1865V24.3547C40.3268 24.1608 40.5871 24.0416 40.9057 24.0416C41.1797 24.0416 41.3955 24.1164 41.5599 24.266C41.7277 24.4259 41.7996 24.6504 41.7996 25.0451V25.9567H41.2483V25.0316C41.2483 24.8172 41.2002 24.6879 41.094 24.6064C41.0084 24.5384 40.8918 24.5044 40.7651 24.5044C40.5049 24.5044 40.2994 24.6334 40.2207 24.8408C40.1967 24.9058 40.1865 24.9837 40.1865 25.0791V25.9567H39.635Z" fill="white"/>
<path fill-rule="evenodd" clip-rule="evenodd" d="M42.6071 25.7457C42.3949 25.5723 42.2887 25.3344 42.2887 25.028C42.2887 24.739 42.3982 24.5008 42.6208 24.317C42.8435 24.1334 43.1279 24.0415 43.4805 24.0415C43.8266 24.0415 44.104 24.1231 44.3163 24.2866C44.5321 24.4497 44.6383 24.6608 44.6383 24.9159C44.6383 24.9397 44.6383 24.9599 44.6348 24.9838C44.6348 25.0078 44.6315 25.0585 44.628 25.1436H42.8538C42.8915 25.4056 43.1484 25.5588 43.5492 25.5588C43.8369 25.5588 44.1209 25.467 44.2958 25.3174L44.5903 25.6472C44.3882 25.8684 43.9738 26.0045 43.4977 26.0045C43.1175 26.0045 42.823 25.9196 42.6071 25.7457ZM42.871 24.8H44.0561C44.0184 24.5859 43.8061 24.4533 43.4873 24.4533C43.162 24.4533 42.9292 24.5822 42.871 24.8Z" fill="white"/>
<path fill-rule="evenodd" clip-rule="evenodd" d="M46.2222 25.9567V23.4121H46.7736V24.3104C46.9552 24.1334 47.2155 24.0416 47.5167 24.0416C47.8352 24.0416 48.0921 24.1334 48.2942 24.3136C48.4962 24.4942 48.5957 24.732 48.5957 25.025C48.5957 25.3138 48.4962 25.5522 48.2942 25.7322C48.0921 25.9128 47.8352 26.0047 47.5167 26.0047C47.2051 26.0047 46.9381 25.9057 46.7598 25.7287V25.9567H46.2222ZM48.0339 25.025C48.0339 24.7016 47.784 24.4874 47.4142 24.4874C47.0305 24.4874 46.7736 24.7016 46.7736 25.025C46.7736 25.348 47.0305 25.5589 47.4142 25.5589C47.7874 25.5589 48.0339 25.348 48.0339 25.025Z" fill="white"/>
<path fill-rule="evenodd" clip-rule="evenodd" d="M49.3325 25.739C49.1167 25.562 49.0105 25.3241 49.0105 25.0247C49.0105 24.7219 49.1167 24.4837 49.3325 24.3067C49.5483 24.1299 49.8394 24.0415 50.2058 24.0415C50.5724 24.0415 50.8602 24.1299 51.076 24.3067C51.2917 24.4837 51.4013 24.7219 51.4013 25.0247C51.4013 25.3241 51.2917 25.562 51.076 25.739C50.8602 25.9159 50.5724 26.0044 50.2058 26.0044C49.8394 26.0044 49.5483 25.9159 49.3325 25.739ZM50.8397 25.0247C50.8397 24.6947 50.5929 24.4837 50.2058 24.4837C49.8189 24.4837 49.5724 24.6947 49.5724 25.0247C49.5724 25.3545 49.8189 25.562 50.2058 25.562C50.5929 25.562 50.8397 25.3545 50.8397 25.0247Z" fill="white"/>
<path fill-rule="evenodd" clip-rule="evenodd" d="M54.0599 25.9569H53.3269L52.796 25.3517L52.2616 25.9569H51.5765L52.4603 25.0148L51.5936 24.0894H52.3162L52.8268 24.6572L53.3337 24.0894H54.0189L53.1625 24.9942L54.0599 25.9569Z" fill="white"/>
<path fill-rule="evenodd" clip-rule="evenodd" d="M29.1892 20.9943H27.7167V16.7917C27.7167 15.9067 27.3239 15.4303 26.6104 15.3754C26.1657 15.341 25.4609 15.4452 24.9494 15.5592V20.9943H23.4763V14.5183C23.4763 14.5183 25.2674 14.1218 26.8851 14.123C27.5848 14.1238 28.144 14.3708 28.5617 14.7869C28.9798 15.2029 29.1892 15.7826 29.1892 16.5257V20.9943Z" fill="white"/>
<path fill-rule="evenodd" clip-rule="evenodd" d="M54.0282 21.0389C53.7862 21.1001 53.5347 21.1306 53.2746 21.1306C52.4447 21.1306 51.8964 20.9472 51.6293 20.5806C51.4161 20.2923 51.3099 19.746 51.3099 18.9419V12.2021H52.7635V14.108H54.054V15.2872H52.7635V18.8501C52.7635 19.2349 52.8127 19.4886 52.9114 19.611C53.0278 19.7678 53.2746 19.8464 53.6518 19.8464C53.7595 19.8464 53.8848 19.8379 54.0282 19.8203V21.0389Z" fill="white"/>
<path fill-rule="evenodd" clip-rule="evenodd" d="M8.52301 16.6077C8.52301 16.6077 6.79877 17.2698 4.6713 17.2698C2.54406 17.2698 0.81958 16.6077 0.81958 16.6077C0.81958 16.6077 2.54406 15.9458 4.6713 15.9458C6.79877 15.9458 8.52301 16.6077 8.52301 16.6077Z" fill="#FFCB04"/>
<mask id="mask0_434_557" style="mask-type:alpha" maskUnits="userSpaceOnUse" x="9" y="0" width="5" height="7">
<path d="M9.54138 0.652832H13.8491V6.87105H9.54138V0.652832Z" fill="white"/>
</mask>
<g mask="url(#mask0_434_557)">
<path fill-rule="evenodd" clip-rule="evenodd" d="M13.8491 6.87114C13.8491 6.87114 12.3212 5.8492 11.1315 4.1321C9.94218 2.41501 9.54138 0.652832 9.54138 0.652832C9.54138 0.652832 11.0691 1.67477 12.2589 3.39174C13.4484 5.10907 13.8491 6.87114 13.8491 6.87114Z" fill="#FFCB04"/>
</g>
<path fill-rule="evenodd" clip-rule="evenodd" d="M9.94813 11.0726C9.94813 11.0726 8.10648 10.8688 6.22822 9.89624C4.34996 8.924 3.14661 7.55127 3.14661 7.55127C3.14661 7.55127 4.98825 7.75503 6.86651 8.72751C8.74478 9.69988 9.94813 11.0726 9.94813 11.0726Z" fill="#FFCB04"/>
<path fill-rule="evenodd" clip-rule="evenodd" d="M13.6647 19.7955C14.7579 19.7852 16.0765 18.9302 16.0765 18.9302C16.0765 18.9302 13.0191 18.0111 13.2115 15.2875C13.8144 10.8176 17.4583 7.30823 22.0199 6.74351C21.5362 6.6772 21.0421 6.64254 20.5391 6.64462C14.8969 6.66944 10.3435 11.1436 10.3688 16.6376C10.3941 22.1313 14.9888 26.5648 20.6311 26.5402C21.1017 26.5382 21.5639 26.5024 22.0173 26.4404C18.0137 25.9435 14.7551 23.1949 13.5862 19.5624" fill="#FFCB04"/>
<mask id="mask1_434_557" style="mask-type:alpha" maskUnits="userSpaceOnUse" x="9" y="26" width="5" height="7">
<path d="M9.54138 26.3066H13.8491V32.5252H9.54138V26.3066Z" fill="white"/>
</mask>
<g mask="url(#mask1_434_557)">
<path fill-rule="evenodd" clip-rule="evenodd" d="M13.8491 26.3066C13.8491 26.3066 12.3212 27.3287 11.1315 29.046C9.94218 30.7629 9.54138 32.5253 9.54138 32.5253C9.54138 32.5253 11.0691 31.5032 12.2589 29.7862C13.4484 28.0691 13.8491 26.3066 13.8491 26.3066Z" fill="#FFCB04"/>
</g>
<path fill-rule="evenodd" clip-rule="evenodd" d="M9.94813 22.1055C9.94813 22.1055 8.10648 22.3092 6.22822 23.2818C4.34996 24.254 3.14661 25.6267 3.14661 25.6267C3.14661 25.6267 4.98825 25.4229 6.86651 24.4506C8.74478 23.4781 9.94813 22.1055 9.94813 22.1055Z" fill="#FFCB04"/>
<mask id="mask2_434_557" style="mask-type:alpha" maskUnits="userSpaceOnUse" x="0" y="0" width="55" height="33">
<path d="M0.81958 32.5251H54.0599V0.652832H0.81958V32.5251Z" fill="white"/>
</mask>
<g mask="url(#mask2_434_557)">
<path fill-rule="evenodd" clip-rule="evenodd" d="M20.5183 20.9874H22.0199V12.1953H20.5183V20.9874Z" fill="white"/>
<path fill-rule="evenodd" clip-rule="evenodd" d="M35.5733 15.1998C35.5733 14.1338 35.0481 13.6011 33.9989 13.6011H32.1473V16.7726H33.9713C34.474 16.7726 34.8668 16.6352 35.1493 16.3598C35.4317 16.0846 35.5733 15.6979 35.5733 15.1998ZM37.0907 15.1998C37.0907 16.0996 36.8097 16.8228 36.25 17.369C35.6887 17.9149 34.928 18.1878 33.9679 18.1878H32.1473V20.9661H30.6456V12.1724H33.8603C34.9009 12.1724 35.6998 12.4415 36.2562 12.9788C36.8123 13.516 37.0907 14.2564 37.0907 15.1998Z" fill="white"/>
<path fill-rule="evenodd" clip-rule="evenodd" d="M42.5212 17.51C42.5212 16.8478 42.3661 16.3232 42.0573 15.9356C41.7469 15.5482 41.3367 15.354 40.8249 15.354C40.314 15.354 39.9031 15.5504 39.5933 15.942C39.2846 16.3342 39.1298 16.8564 39.1298 17.51C39.1298 18.1717 39.2846 18.6964 39.5933 19.0841C39.9031 19.4719 40.314 19.6656 40.8249 19.6656C41.3367 19.6656 41.7469 19.4719 42.0573 19.0841C42.3661 18.6964 42.5212 18.1717 42.5212 17.51ZM44.0417 17.5032C44.0417 18.5604 43.7436 19.4124 43.1466 20.0588C42.5494 20.7055 41.7765 21.0284 40.8249 21.0284C39.8746 21.0284 39.1 20.7055 38.5037 20.0588C37.9066 19.4124 37.6086 18.5604 37.6086 17.5032C37.6086 16.4466 37.9066 15.5965 38.5037 14.9542C39.1 14.3124 39.8746 13.9912 40.8249 13.9912C41.7851 13.9912 42.5613 14.3124 43.1536 14.9542C43.7455 15.5965 44.0417 16.4466 44.0417 17.5032Z" fill="white"/>
<path fill-rule="evenodd" clip-rule="evenodd" d="M50.4383 18.7218C50.4383 19.3861 50.1781 19.9319 49.6572 20.3602C49.1373 20.7886 48.4505 21.0018 47.5988 21.0018C46.2703 21.0018 45.2433 20.6088 44.5162 19.8224L45.6332 18.8922C46.1897 19.4345 46.8403 19.7048 47.5848 19.7048C47.9982 19.7048 48.3255 19.624 48.5679 19.4624C48.81 19.3007 48.9312 19.0981 48.9312 18.8531C48.9312 18.5737 48.7918 18.3812 48.5139 18.2765C48.3523 18.2154 47.9218 18.1325 47.2217 18.0273C46.3783 17.9053 45.7772 17.7217 45.4177 17.477C44.9961 17.1802 44.786 16.7344 44.786 16.1407C44.786 15.5376 45.0413 15.0332 45.5526 14.6264C46.0639 14.2205 46.746 14.0171 47.5988 14.0171C48.6299 14.0171 49.5094 14.3538 50.2366 15.0264L49.3615 15.9438C48.8322 15.4812 48.2309 15.2491 47.5578 15.2491C46.6964 15.2491 46.2662 15.4898 46.2662 15.9702C46.2662 16.2495 46.4632 16.4419 46.8585 16.5469C47.4144 16.6337 47.9662 16.7257 48.5139 16.8216C49.7966 17.0577 50.4383 17.691 50.4383 18.7218Z" fill="white"/>
</g>
</g>
<defs>
<clipPath id="clip0_434_557">
<rect width="53.3333" height="32" fill="white" transform="translate(0.81958 0.531738)"/>
</clipPath>
</defs>
</svg>
