<svg width="13" height="12" viewBox="0 0 13 12" fill="none" xmlns="http://www.w3.org/2000/svg">
<path d="M11.25 0H1.25C0.984784 0 0.73043 0.105357 0.542893 0.292893C0.355357 0.48043 0.25 0.734784 0.25 1C0.25 1.26522 0.355357 1.51957 0.542893 1.70711C0.73043 1.89464 0.984784 2 1.25 2H5.25V11C5.25 11.2652 5.35536 11.5196 5.54289 11.7071C5.73043 11.8946 5.98478 12 6.25 12C6.51522 12 6.76957 11.8946 6.95711 11.7071C7.14464 11.5196 7.25 11.2652 7.25 11V2H11.25C11.5152 2 11.7696 1.89464 11.9571 1.70711C12.1446 1.51957 12.25 1.26522 12.25 1C12.25 0.734784 12.1446 0.48043 11.9571 0.292893C11.7696 0.105357 11.5152 0 11.25 0Z" fill="white"/>
</svg>
