<svg width="42" height="33" viewBox="0 0 42 33" fill="none" xmlns="http://www.w3.org/2000/svg">
<g clip-path="url(#clip0_430_391)">
<path d="M7.68622 32.4615V30.3378C7.68622 29.5254 7.19138 28.9935 6.34189 28.9935C5.91715 28.9935 5.45529 29.1337 5.13777 29.5955C4.89035 29.2079 4.53571 28.9935 4.00375 28.9935C3.64911 28.9935 3.29447 29.1007 3.01406 29.4883V29.0636H2.27179V32.4615H3.01406V30.5852C3.01406 29.9832 3.33158 29.6986 3.82643 29.6986C4.32127 29.6986 4.5687 30.0161 4.5687 30.5852V32.4615H5.31096V30.5852C5.31096 29.9832 5.6656 29.6986 6.12334 29.6986C6.61818 29.6986 6.8656 30.0161 6.8656 30.5852V32.4615H7.68622ZM18.6965 29.0636H17.4924V28.0368H16.7501V29.0636H16.078V29.7357H16.7501V31.2945C16.7501 32.0739 17.0677 32.5316 17.9172 32.5316C18.2347 32.5316 18.5893 32.4244 18.8367 32.2842L18.6223 31.645C18.4079 31.7852 18.1604 31.8223 17.9831 31.8223C17.6285 31.8223 17.4883 31.6079 17.4883 31.2574V29.7357H18.6924V29.0636H18.6965ZM24.9976 28.9893C24.5728 28.9893 24.2883 29.2038 24.111 29.4842V29.0594H23.3687V32.4574H24.111V30.544C24.111 29.979 24.3584 29.6574 24.8202 29.6574C24.9605 29.6574 25.1378 29.6945 25.2821 29.7275L25.4965 29.0182C25.3481 28.9893 25.1378 28.9893 24.9976 28.9893ZM15.4759 29.344C15.1213 29.0966 14.6264 28.9893 14.0945 28.9893C13.245 28.9893 12.68 29.4141 12.68 30.0862C12.68 30.6512 13.1048 30.9728 13.847 31.0759L14.2017 31.1131C14.5893 31.1832 14.8038 31.2904 14.8038 31.4677C14.8038 31.7151 14.5192 31.8924 14.0244 31.8924C13.5295 31.8924 13.1378 31.7151 12.8903 31.5378L12.5357 32.1027C12.9233 32.3873 13.4553 32.5275 13.9873 32.5275C14.9769 32.5275 15.546 32.0656 15.546 31.4306C15.546 30.8285 15.0842 30.511 14.379 30.4038L14.0244 30.3667C13.7068 30.3295 13.4594 30.2594 13.4594 30.0491C13.4594 29.8017 13.7068 29.6615 14.0986 29.6615C14.5233 29.6615 14.9481 29.8388 15.1625 29.946L15.4759 29.344ZM35.2244 28.9893C34.7996 28.9893 34.5151 29.2038 34.3378 29.4842V29.0594H33.5955V32.4574H34.3378V30.544C34.3378 29.979 34.5852 29.6574 35.0471 29.6574C35.1873 29.6574 35.3646 29.6945 35.5089 29.7275L35.7233 29.0265C35.579 28.9893 35.3687 28.9893 35.2244 28.9893ZM25.7398 30.7625C25.7398 31.7893 26.4491 32.5316 27.546 32.5316C28.0409 32.5316 28.3955 32.4244 28.7501 32.144L28.3955 31.5419C28.111 31.7564 27.8306 31.8594 27.5089 31.8594C26.9068 31.8594 26.4821 31.4347 26.4821 30.7625C26.4821 30.1234 26.9068 29.6986 27.5089 29.6656C27.8264 29.6656 28.111 29.7728 28.3955 29.9832L28.7501 29.3811C28.3955 29.0966 28.0409 28.9935 27.546 28.9935C26.4491 28.9893 25.7398 29.7357 25.7398 30.7625ZM32.6058 30.7625V29.0636H31.8635V29.4883C31.6161 29.1708 31.2615 28.9935 30.7996 28.9935C29.8429 28.9935 29.1007 29.7357 29.1007 30.7625C29.1007 31.7893 29.8429 32.5316 30.7996 32.5316C31.2945 32.5316 31.6491 32.3543 31.8635 32.0368V32.4615H32.6058V30.7625ZM29.88 30.7625C29.88 30.1605 30.2677 29.6656 30.9068 29.6656C31.5089 29.6656 31.9336 30.1275 31.9336 30.7625C31.9336 31.3646 31.5089 31.8594 30.9068 31.8594C30.2718 31.8223 29.88 31.3605 29.88 30.7625ZM20.9976 28.9893C20.0079 28.9893 19.2986 29.6986 19.2986 30.7584C19.2986 31.8223 20.0079 32.5275 21.0347 32.5275C21.5295 32.5275 22.0244 32.3873 22.4161 32.0656L22.0615 31.5337C21.7769 31.7481 21.4223 31.8883 21.0718 31.8883C20.6099 31.8883 20.1522 31.6739 20.045 31.0759H22.5563C22.5563 30.9687 22.5563 30.8986 22.5563 30.7914C22.5893 29.6986 21.9501 28.9893 20.9976 28.9893ZM20.9976 29.6285C21.4594 29.6285 21.7769 29.9131 21.847 30.4409H20.078C20.1481 29.9832 20.4656 29.6285 20.9976 29.6285ZM39.4388 30.7625V27.7192H38.6965V29.4883C38.4491 29.1708 38.0945 28.9935 37.6326 28.9935C36.6759 28.9935 35.9336 29.7357 35.9336 30.7625C35.9336 31.7893 36.6759 32.5316 37.6326 32.5316C38.1275 32.5316 38.4821 32.3543 38.6965 32.0368V32.4615H39.4388V30.7625ZM36.713 30.7625C36.713 30.1605 37.1007 29.6656 37.7398 29.6656C38.3419 29.6656 38.7666 30.1275 38.7666 30.7625C38.7666 31.3646 38.3419 31.8594 37.7398 31.8594C37.1007 31.8223 36.713 31.3605 36.713 30.7625ZM11.8635 30.7625V29.0636H11.1213V29.4883C10.8739 29.1708 10.5192 28.9935 10.0574 28.9935C9.10066 28.9935 8.35839 29.7357 8.35839 30.7625C8.35839 31.7893 9.10066 32.5316 10.0574 32.5316C10.5522 32.5316 10.9068 32.3543 11.1213 32.0368V32.4615H11.8635V30.7625ZM9.10478 30.7625C9.10478 30.1605 9.49241 29.6656 10.1316 29.6656C10.7336 29.6656 11.1584 30.1275 11.1584 30.7625C11.1584 31.3646 10.7336 31.8594 10.1316 31.8594C9.49241 31.8223 9.10478 31.3605 9.10478 30.7625Z" fill="white"/>
<path d="M26.379 3.25732H15.2285V23.2903H26.379V3.25732Z" fill="#FF5A00"/>
<path d="M15.9707 13.274C15.9707 9.2039 17.8841 5.59153 20.8202 3.25751C18.6594 1.55854 15.9336 0.531738 12.9604 0.531738C5.91714 0.531738 0.21817 6.23071 0.21817 13.274C0.21817 20.3173 5.91714 26.0163 12.9604 26.0163C15.9336 26.0163 18.6594 24.9895 20.8202 23.2905C17.88 20.9895 15.9707 17.3441 15.9707 13.274Z" fill="#EB001B"/>
<path d="M41.4223 13.274C41.4223 20.3173 35.7233 26.0163 28.68 26.0163C25.7068 26.0163 22.981 24.9895 20.8202 23.2905C23.7934 20.9524 25.6697 17.3441 25.6697 13.274C25.6697 9.2039 23.7563 5.59153 20.8202 3.25751C22.9769 1.55854 25.7027 0.531738 28.6759 0.531738C35.7233 0.531738 41.4223 6.26782 41.4223 13.274Z" fill="#F79E1B"/>
</g>
<defs>
<clipPath id="clip0_430_391">
<rect width="41.2041" height="32" fill="white" transform="translate(0.21817 0.531738)"/>
</clipPath>
</defs>
</svg>
