<svg width="21" height="18" viewBox="0 0 21 18" fill="none" xmlns="http://www.w3.org/2000/svg">
<path d="M17.75 3.50002H16.47L16.15 2.50002C15.9426 1.91325 15.5577 1.40553 15.0489 1.04718C14.5401 0.68884 13.9324 0.497623 13.31 0.500022H8.19C7.56155 0.501198 6.94933 0.699705 6.43977 1.06753C5.9302 1.43535 5.54901 1.95391 5.35 2.55002L5.03 3.55002H3.75C2.95435 3.55002 2.19129 3.86609 1.62868 4.4287C1.06607 4.99131 0.75 5.75437 0.75 6.55002V14.55C0.75 15.3457 1.06607 16.1087 1.62868 16.6713C2.19129 17.234 2.95435 17.55 3.75 17.55H17.75C18.5456 17.55 19.3087 17.234 19.8713 16.6713C20.4339 16.1087 20.75 15.3457 20.75 14.55V6.55002C20.7566 6.15187 20.6839 5.75638 20.5362 5.38661C20.3884 5.01684 20.1684 4.6802 19.8892 4.39631C19.61 4.11241 19.277 3.88695 18.9097 3.73307C18.5424 3.57919 18.1482 3.49997 17.75 3.50002ZM18.75 14.5C18.75 14.7652 18.6446 15.0196 18.4571 15.2071C18.2696 15.3947 18.0152 15.5 17.75 15.5H3.75C3.48478 15.5 3.23043 15.3947 3.04289 15.2071C2.85536 15.0196 2.75 14.7652 2.75 14.5V6.50002C2.75 6.23481 2.85536 5.98045 3.04289 5.79292C3.23043 5.60538 3.48478 5.50002 3.75 5.50002H5.75C5.96807 5.5114 6.18386 5.4511 6.36443 5.32831C6.545 5.20552 6.68042 5.027 6.75 4.82002L7.29 3.18002C7.35709 2.9814 7.4849 2.80889 7.65537 2.68686C7.82584 2.56484 8.03036 2.49948 8.24 2.50002H13.36C13.5696 2.49948 13.7742 2.56484 13.9446 2.68686C14.1151 2.80889 14.2429 2.9814 14.31 3.18002L14.85 4.82002C14.9142 5.01077 15.0344 5.17771 15.195 5.29903C15.3555 5.42035 15.549 5.4904 15.75 5.50002H17.75C18.0152 5.50002 18.2696 5.60538 18.4571 5.79292C18.6446 5.98045 18.75 6.23481 18.75 6.50002V14.5ZM10.75 5.50002C9.95887 5.50002 9.18552 5.73462 8.52772 6.17414C7.86992 6.61367 7.35723 7.23838 7.05448 7.96929C6.75173 8.70019 6.67252 9.50446 6.82686 10.2804C6.9812 11.0563 7.36216 11.769 7.92157 12.3284C8.48098 12.8879 9.19372 13.2688 9.96964 13.4232C10.7456 13.5775 11.5498 13.4983 12.2807 13.1955C13.0116 12.8928 13.6364 12.3801 14.0759 11.7223C14.5154 11.0645 14.75 10.2911 14.75 9.50002C14.75 8.43916 14.3286 7.42174 13.5784 6.6716C12.8283 5.92145 11.8109 5.50002 10.75 5.50002ZM10.75 11.5C10.3544 11.5 9.96776 11.3827 9.63886 11.163C9.30996 10.9432 9.05362 10.6308 8.90224 10.2654C8.75087 9.89994 8.71126 9.4978 8.78843 9.10984C8.8656 8.72188 9.05608 8.36551 9.33579 8.08581C9.61549 7.8061 9.97186 7.61562 10.3598 7.53845C10.7478 7.46128 11.1499 7.50089 11.5154 7.65226C11.8808 7.80364 12.1932 8.05998 12.4129 8.38888C12.6327 8.71778 12.75 9.10446 12.75 9.50002C12.75 10.0305 12.5393 10.5392 12.1642 10.9142C11.7891 11.2893 11.2804 11.5 10.75 11.5Z" fill="white"/>
</svg>
