<svg width="152" height="33" viewBox="0 0 152 33" fill="none" xmlns="http://www.w3.org/2000/svg">
<g clip-path="url(#clip0_430_492)">
<path d="M0.449463 0.531738H151.82V32.5317H0.449463V0.531738ZM27.8693 6.49331C26.8501 6.96764 25.8145 7.43064 24.8765 8.05174C25.8536 7.89174 26.9647 8.04796 27.7565 8.68544C28.4551 9.24859 28.5925 10.2458 28.3556 11.0684C27.8775 12.6873 26.7159 14.0095 25.4561 15.0867C23.6614 16.5418 21.5487 17.67 19.2583 18.0732C18.7562 18.0662 18.2592 18.2955 17.7628 18.1513C16.8589 18.1072 15.8636 17.7582 15.4082 16.9185C14.9754 16.1532 15.1455 15.2121 15.5065 14.4555C14.4211 15.4835 13.2646 16.458 12.3625 17.6624C11.9758 18.1784 11.5783 18.7617 11.5695 19.4262C11.601 19.9302 12.1225 20.1431 12.554 20.2023C13.3093 20.2502 14.0665 20.2161 14.8117 20.0952C17.8101 19.7928 20.8028 20.795 23.4428 22.179C24.9685 22.9494 26.4041 23.8936 27.9777 24.5695C29.783 25.3368 31.7383 25.8439 33.7093 25.7569C36.2246 25.8407 38.7008 24.9563 40.8028 23.6121C44.1238 21.4621 46.5918 18.218 48.3896 14.7384C48.4318 14.4095 48.5238 13.9371 48.1509 13.7607C47.7773 13.5591 47.3742 13.8678 47.1833 14.1821C45.5657 16.6684 43.4838 18.916 40.8822 20.3862C39.1789 21.35 37.2469 21.9402 35.291 22.0058C33.6123 22.0687 31.7918 21.5302 30.6252 20.2451C29.3276 18.8083 28.8728 16.7484 29.08 14.8669C29.2715 12.9758 29.9632 11.1503 31.0063 9.56544C31.6104 8.52418 32.4047 7.44449 32.3525 6.18528C32.3147 5.67064 31.7502 5.50686 31.3188 5.48544C30.1137 5.57174 28.9691 6.01898 27.8693 6.49331ZM118.018 9.57363C117.858 9.5856 117.635 9.64544 117.662 9.85079C117.656 13.6114 117.66 17.3721 117.661 21.1327C117.639 21.498 118.126 21.4369 118.371 21.4552C118.609 21.4395 119.076 21.4873 119.062 21.1346C119.058 17.3557 119.07 13.5761 119.055 9.79851C118.888 9.43694 118.346 9.58308 118.018 9.57363ZM127.31 9.85142C127.312 13.631 127.31 17.4117 127.31 21.1913C127.351 21.5037 127.779 21.4306 128.009 21.4546C128.249 21.4388 128.725 21.4917 128.703 21.1333C128.707 19.7387 128.701 18.344 128.706 16.95C129.774 18.3264 130.823 19.7172 131.881 21.1018C132.182 21.5988 132.856 21.4426 133.341 21.4212C133.636 21.4086 133.644 21.0678 133.469 20.9002C132.415 19.5056 131.333 18.1311 130.272 16.7409C131.212 15.8048 132.153 14.8681 133.086 13.9251C133.253 13.7796 133.425 13.3916 133.101 13.3254C132.594 13.2618 131.937 13.156 131.573 13.6083C130.618 14.6558 129.67 15.7103 128.706 16.751C128.694 14.4152 128.721 12.0776 128.693 9.74308C128.511 9.49741 128.146 9.57615 127.879 9.55788C127.673 9.57615 127.291 9.55032 127.31 9.85142ZM54.161 10.9418C54.1496 14.3365 54.1584 17.7311 54.1572 21.1258C54.1238 21.4464 54.5263 21.4332 54.7455 21.4508C55.0221 21.4262 55.4504 21.5232 55.6041 21.2322C55.6274 19.8961 55.606 18.5582 55.6142 17.2215C56.8923 17.2234 58.2819 17.316 59.4057 16.5897C60.8022 15.7393 61.2444 13.8294 60.697 12.351C60.355 11.4199 59.4788 10.761 58.5276 10.5487C57.3282 10.2854 56.0917 10.4347 54.8747 10.3938C54.5345 10.3428 54.1427 10.5639 54.161 10.9418ZM101.251 10.9859C101.242 14.3264 101.252 17.6669 101.246 21.0073C101.243 21.1484 101.232 21.3557 101.415 21.3865C101.783 21.481 102.184 21.4829 102.552 21.3834C102.703 21.3544 102.712 21.195 102.71 21.0697C102.708 19.7878 102.71 18.5059 102.708 17.224C104.154 17.2391 105.804 17.3091 106.944 16.2546C107.94 15.3576 108.22 13.8628 107.879 12.6023C107.625 11.6461 106.821 10.9084 105.889 10.6212C104.603 10.2495 103.248 10.4442 101.929 10.3944C101.577 10.3459 101.22 10.6149 101.251 10.9859ZM22.8362 11.0174C21.6539 11.2473 20.5704 11.9012 19.7572 12.7812C19.3855 13.2139 19.029 13.733 19.0334 14.3264C19.0397 14.7434 19.3925 15.0741 19.7874 15.1478C20.5868 15.3091 21.4 15.042 22.1156 14.6987C23.206 14.1154 24.3921 13.2372 24.5874 11.9339C24.634 11.03 23.5159 10.8461 22.8362 11.0174ZM84.8469 11.413C84.8054 12.0461 84.8451 12.6842 84.8287 13.3191C84.4293 13.3361 84.0205 13.2757 83.628 13.3494C83.412 13.6448 83.4063 14.1336 83.6199 14.4347C84.0129 14.5223 84.4268 14.4461 84.828 14.475C84.8369 16.0234 84.823 17.5711 84.835 19.1195C84.8463 19.8458 84.9729 20.6823 85.5934 21.1491C86.3071 21.653 87.274 21.6253 88.0797 21.3859C88.5654 21.2549 88.4999 20.6439 88.4299 20.2596C88.4085 20.0631 88.1836 20.1242 88.0646 20.1828C87.6211 20.3761 87.0643 20.4618 86.646 20.1664C86.2844 19.8439 86.2517 19.3128 86.2321 18.8606C86.2208 17.3991 86.2321 15.9377 86.2265 14.4763C86.9188 14.458 87.618 14.511 88.3071 14.4498C88.561 14.1525 88.5219 13.6429 88.3216 13.3223C87.6236 13.3122 86.9257 13.3191 86.2277 13.3185C86.2189 12.6961 86.2435 12.0725 86.217 11.4508C86.1232 11.1906 85.7729 11.2435 85.5512 11.224C85.3188 11.2461 84.9862 11.1774 84.8469 11.413ZM38.2775 11.7777C36.6901 11.9869 35.2318 13.0728 34.5811 14.5393C34.1962 15.4004 34.1748 16.482 34.7436 17.2694C35.2243 17.9434 36.0602 18.2672 36.8633 18.305C38.9685 18.4007 41.1052 16.8921 41.5789 14.8064C41.6873 14.0946 41.628 13.3072 41.1588 12.7251C40.498 11.8552 39.3017 11.6158 38.2775 11.7777ZM73.795 13.1654C72.8337 13.1692 71.8403 13.5358 71.2236 14.2974C70.4684 15.2121 70.2655 16.448 70.2888 17.602C70.3039 18.7346 70.5673 19.9654 71.424 20.7698C72.6599 21.8716 74.6473 21.7765 75.9625 20.8637C76.3077 20.6584 76.3632 20.2357 76.3228 19.8703C76.3039 19.7034 76.3128 19.3626 76.0639 19.3972C75.6665 19.585 75.3591 19.9276 74.9502 20.1009C74.1332 20.5248 72.9729 20.4536 72.3676 19.7015C71.8221 19.0073 71.7351 18.0788 71.7503 17.2259C71.7666 16.3094 71.9424 15.2505 72.7279 14.6678C73.6016 14.075 74.8028 14.3396 75.5777 14.9796C75.7515 15.122 76.0847 15.4067 76.2309 15.0823C76.3361 14.681 76.3613 14.1494 75.9959 13.8665C75.3862 13.3632 74.5729 13.1635 73.795 13.1654ZM111.98 13.1824C110.951 13.2574 109.934 13.7639 109.348 14.6281C108.664 15.6177 108.52 16.8757 108.61 18.048C108.686 19.0439 109.02 20.0851 109.799 20.7547C110.617 21.4653 111.765 21.6347 112.812 21.5453C113.767 21.4672 114.717 21.0445 115.321 20.2848C116.063 19.3626 116.284 18.1298 116.232 16.9733C116.203 15.876 115.871 14.7062 115.016 13.9642C114.19 13.2505 113.034 13.0861 111.98 13.1824ZM123.001 13.1793C122.332 13.2385 121.655 13.4999 121.19 13.9995C120.432 14.8265 120.471 16.2886 121.355 17.013C122.161 17.7374 123.337 17.8035 124.163 18.4889C124.734 18.9424 124.555 19.9573 123.9 20.2413C122.979 20.6659 121.894 20.3982 121.067 19.8823C120.914 19.8004 120.646 19.6039 120.535 19.8332C120.42 20.2558 120.383 20.8845 120.862 21.0955C122.026 21.6776 123.482 21.7525 124.663 21.1799C125.906 20.608 126.312 18.778 125.392 17.7569C124.571 16.904 123.281 16.8335 122.369 16.1217C121.794 15.7028 121.912 14.7075 122.555 14.4171C123.341 14.0662 124.272 14.2684 124.988 14.6955C125.118 14.7698 125.343 14.9147 125.433 14.7113C125.51 14.3932 125.562 13.985 125.354 13.7084C124.69 13.2139 123.806 13.1138 123.001 13.1793ZM135.154 13.8514C134.756 14.0637 134.748 14.613 134.914 14.9765C135.038 15.1787 135.28 15.0199 135.435 14.945C136.159 14.5317 136.981 14.213 137.83 14.3024C138.334 14.3138 138.879 14.5261 139.124 14.9935C139.388 15.5182 139.343 16.1261 139.344 16.6955C138.112 16.698 136.803 16.6269 135.675 17.2076C134.827 17.6045 134.34 18.5576 134.458 19.4779C134.49 20.4624 135.283 21.2927 136.234 21.4716C137.428 21.796 138.72 21.3349 139.537 20.4316C139.6 20.7623 139.329 21.4206 139.852 21.442C140.131 21.4382 140.577 21.5497 140.728 21.2486C140.749 19.551 140.73 17.8521 140.737 16.1538C140.741 15.4401 140.663 14.671 140.22 14.0826C139.82 13.5535 139.161 13.2984 138.523 13.2089C137.374 13.0584 136.152 13.2454 135.154 13.8514ZM64.5364 13.2259C63.8624 13.3399 63.2129 13.6341 62.7109 14.1009C61.7282 15.0174 61.4466 16.4385 61.4964 17.7311C61.5361 18.7969 61.8221 19.9333 62.6277 20.6842C63.4699 21.4697 64.7002 21.6498 65.8063 21.5358C66.7991 21.4395 67.7754 20.95 68.3531 20.1217C69.063 19.1201 69.2205 17.835 69.1184 16.6388C69.041 15.6177 68.6668 14.5519 67.8416 13.8968C66.9206 13.1686 65.6614 13.0514 64.5364 13.2259ZM89.8901 14.0051C89.5676 14.2684 89.5984 15.3368 90.1836 15.0527C90.9257 14.6439 91.7408 14.2678 92.6107 14.339C93.1373 14.3402 93.7301 14.5242 93.9928 15.0187C94.263 15.5453 94.2397 16.1632 94.2252 16.7396C93.1764 16.7428 92.098 16.6898 91.0882 17.0262C90.4514 17.2322 89.8365 17.6335 89.543 18.2546C89.0863 19.2505 89.3427 20.6193 90.331 21.1976C91.6432 21.9774 93.4189 21.6095 94.4154 20.482C94.4784 20.8058 94.2195 21.4187 94.6964 21.4817C94.9874 21.488 95.4353 21.5963 95.6085 21.2977C95.6356 19.6473 95.611 17.9938 95.6205 16.3428C95.6211 15.6486 95.5865 14.9103 95.2192 14.2999C94.7947 13.5818 93.938 13.2832 93.1468 13.2221C92.0249 13.1308 90.8186 13.3418 89.8901 14.0051ZM77.761 13.3343C77.4932 13.6026 77.4914 14.2187 77.7824 14.4706C78.9017 14.5229 80.0312 14.4757 81.1543 14.4939C80.006 16.2943 78.8425 18.0858 77.6948 19.8861C77.4498 20.247 77.4258 20.7037 77.4939 21.122C77.531 21.3198 77.7395 21.4212 77.9273 21.4067C79.4189 21.4086 80.9112 21.4042 82.4035 21.4086C83.0901 21.5617 83.0888 20.0788 82.4041 20.2281C81.2671 20.2319 80.1307 20.2275 78.9943 20.2306C80.132 18.4341 81.2879 16.6489 82.4262 14.8524C82.6806 14.4681 82.7216 13.9749 82.6202 13.5352C82.549 13.3078 82.2813 13.3122 82.0885 13.316C80.646 13.3311 79.201 13.2933 77.761 13.3343Z" fill="#D52B1E"/>
<path d="M55.6135 11.5995C56.6756 11.6569 57.9398 11.3703 58.7984 12.1677C59.6564 13.0584 59.5757 14.7019 58.6359 15.5063C57.7924 16.2143 56.6264 15.98 55.6154 16.0266C55.6116 14.5507 55.6142 13.0754 55.6135 11.5995Z" fill="#D52B1E"/>
<path d="M102.708 11.5993C103.553 11.6289 104.428 11.5041 105.246 11.7656C106.859 12.3407 106.878 14.9158 105.445 15.7082C104.61 16.17 103.621 15.9867 102.711 16.0207C102.706 14.5467 102.711 13.0726 102.708 11.5993Z" fill="#D52B1E"/>
<path d="M64.9118 14.3529C65.5386 14.2704 66.2296 14.3434 66.7405 14.7472C67.3055 15.1774 67.5386 15.9 67.6199 16.5797C67.7307 17.5831 67.7093 18.7037 67.1002 19.5579C66.5018 20.3945 65.315 20.5582 64.3922 20.242C63.6501 19.9743 63.1884 19.2297 63.0668 18.477C62.8961 17.4842 62.8892 16.4058 63.3421 15.483C63.6337 14.8726 64.2397 14.4335 64.9118 14.3529Z" fill="#D52B1E"/>
<path d="M112.031 14.3491C112.654 14.2722 113.341 14.3509 113.845 14.7572C114.406 15.1944 114.635 15.9182 114.715 16.5998C114.817 17.5226 114.794 18.5204 114.33 19.3513C113.577 20.7264 111.246 20.7642 110.483 19.3796C110.1 18.7106 110.057 17.9131 110.054 17.1598C110.027 15.9434 110.668 14.4744 112.031 14.3491Z" fill="#D52B1E"/>
<path d="M91.3484 18.1083C92.219 17.6094 93.2659 17.7807 94.2246 17.7492C94.219 18.2822 94.241 18.8163 94.2152 19.3486C93.6275 20.1694 92.5327 20.8031 91.5141 20.3955C90.5837 20.0592 90.4993 18.5858 91.3484 18.1083Z" fill="#D52B1E"/>
<path d="M136.511 18.0404C137.377 17.5723 138.402 17.7374 139.347 17.704C139.331 18.2495 139.375 18.8 139.326 19.343C138.941 19.7859 138.479 20.2035 137.911 20.3881C137.34 20.5506 136.631 20.5115 136.201 20.0561C135.679 19.4791 135.795 18.4108 136.511 18.0404Z" fill="#D52B1E"/>
<path d="M27.8693 6.49323C28.9691 6.01889 30.1137 5.57165 31.3187 5.48535C31.7502 5.50677 32.3147 5.67055 32.3524 6.18519C32.4047 7.44441 31.6104 8.52409 31.0063 9.56535C29.9632 11.1502 29.2715 12.9757 29.08 14.8668C28.8728 16.7483 29.3276 18.8082 30.6252 20.245C31.7918 21.5301 33.6123 22.0687 35.291 22.0057C37.2469 21.9402 39.1789 21.3499 40.8822 20.3861C43.4838 18.9159 45.5657 16.6683 47.1833 14.182C47.3742 13.8677 47.7773 13.5591 48.1509 13.7606C48.5238 13.937 48.4318 14.4094 48.3896 14.7383C46.5918 18.2179 44.1238 21.462 40.8028 23.612C38.7008 24.9562 36.2246 25.8406 33.7093 25.7568C31.7383 25.8438 29.783 25.3367 27.9776 24.5694C26.4041 23.8935 24.9685 22.9493 23.4428 22.1789C20.8028 20.795 17.8101 19.7928 14.8117 20.0951C14.0665 20.2161 13.3093 20.2501 12.554 20.2022C12.1225 20.143 11.601 19.9301 11.5695 19.4261C11.5783 18.7616 11.9758 18.1783 12.3625 17.6624C13.2646 16.458 14.4211 15.4835 15.5065 14.4554C15.1455 15.212 14.9754 16.1531 15.4082 16.9184C15.8636 17.7581 16.8589 18.1071 17.7628 18.1512C18.2592 18.2954 18.7562 18.0661 19.2583 18.0731C21.5487 17.6699 23.6614 16.5417 25.4561 15.0866C26.7159 14.0094 27.8775 12.6872 28.3556 11.0683C28.5924 10.2457 28.4551 9.2485 27.7565 8.68535C26.9647 8.04787 25.8536 7.89165 24.8765 8.05165C25.8145 7.43055 26.8501 6.96756 27.8693 6.49323Z" fill="white"/>
<path d="M118.018 9.57364C118.346 9.58309 118.888 9.43695 119.055 9.79852C119.07 13.5762 119.058 17.3557 119.062 21.1346C119.076 21.4873 118.609 21.4395 118.371 21.4552C118.126 21.4369 117.639 21.4981 117.661 21.1327C117.66 17.3721 117.656 13.6114 117.662 9.85081C117.635 9.64545 117.858 9.58561 118.018 9.57364Z" fill="white"/>
<path d="M127.31 9.85116C127.291 9.55006 127.673 9.57588 127.879 9.55762C128.146 9.57588 128.511 9.49714 128.693 9.74281C128.721 12.0773 128.694 14.4149 128.706 16.7507C129.67 15.7101 130.618 14.6556 131.573 13.608C131.937 13.1557 132.594 13.2616 133.101 13.3252C133.425 13.3913 133.253 13.7793 133.086 13.9249C132.153 14.8679 131.212 15.8045 130.272 16.7406C131.333 18.1308 132.415 19.5053 133.469 20.9C133.644 21.0675 133.636 21.4083 133.341 21.4209C132.856 21.4423 132.182 21.5986 131.881 21.1016C130.823 19.717 129.773 18.3261 128.706 16.9497C128.701 18.3438 128.707 19.7384 128.703 21.133C128.725 21.4915 128.248 21.4386 128.008 21.4543C127.779 21.4304 127.351 21.5034 127.31 21.191C127.31 17.4115 127.312 13.6307 127.31 9.85116Z" fill="white"/>
<path d="M54.1609 10.9415C54.1426 10.5636 54.5344 10.3425 54.8746 10.3935C56.0916 10.4344 57.3281 10.2852 58.5275 10.5485C59.4787 10.7607 60.3549 11.4196 60.697 12.3507C61.2444 13.8291 60.8022 15.739 59.4056 16.5894C58.2818 17.3157 56.8922 17.2231 55.6141 17.2212C55.6059 18.5579 55.6274 19.8959 55.604 21.2319C55.4503 21.523 55.022 21.4259 54.7455 21.4505C54.5263 21.4329 54.1237 21.4461 54.1571 21.1255C54.1584 17.7308 54.1496 14.3362 54.1609 10.9415ZM55.6135 11.5992C55.6141 13.0751 55.6116 14.5504 55.6154 16.0263C56.6264 15.9796 57.7924 16.214 58.6359 15.5059C59.5757 14.7015 59.6563 13.0581 58.7984 12.1674C57.9398 11.3699 56.6755 11.6565 55.6135 11.5992Z" fill="white"/>
<path d="M101.251 10.9859C101.22 10.6148 101.577 10.3459 101.928 10.3944C103.248 10.4441 104.602 10.2495 105.889 10.6211C106.821 10.9084 107.625 11.646 107.879 12.6022C108.22 13.8627 107.94 15.3575 106.944 16.2545C105.804 17.309 104.154 17.2391 102.708 17.224C102.71 18.5059 102.708 19.7877 102.71 21.0696C102.712 21.195 102.703 21.3544 102.552 21.3833C102.184 21.4829 101.783 21.481 101.415 21.3865C101.232 21.3556 101.242 21.1484 101.246 21.0073C101.252 17.6668 101.242 14.3263 101.251 10.9859ZM102.708 11.5994C102.711 13.0728 102.706 14.5468 102.711 16.0208C103.621 15.9868 104.61 16.1701 105.445 15.7084C106.878 14.9159 106.859 12.3408 105.246 11.7657C104.428 11.5043 103.553 11.629 102.708 11.5994Z" fill="white"/>
<path d="M22.8362 11.0171C23.5159 10.8458 24.634 11.0297 24.5874 11.9336C24.3921 13.2369 23.206 14.1151 22.1156 14.6984C21.4 15.0417 20.5868 15.3088 19.7874 15.1475C19.3924 15.0738 19.0397 14.7431 19.0334 14.3261C19.029 13.7327 19.3855 13.2136 19.7571 12.7809C20.5704 11.9009 21.6538 11.247 22.8362 11.0171Z" fill="white"/>
<path d="M84.8469 11.4131C84.9861 11.1775 85.3187 11.2462 85.5512 11.2241C85.7729 11.2436 86.1231 11.1907 86.217 11.4509C86.2434 12.0726 86.2189 12.6962 86.2277 13.3186C86.9256 13.3192 87.6236 13.3123 88.3216 13.3224C88.5219 13.643 88.5609 14.1526 88.3071 14.4499C87.6179 14.511 86.9187 14.4581 86.2264 14.4764C86.2321 15.9378 86.2208 17.3992 86.2321 18.8607C86.2516 19.3129 86.2844 19.844 86.646 20.1665C87.0642 20.4619 87.6211 20.3762 88.0645 20.1829C88.1836 20.1243 88.4085 20.0632 88.4299 20.2597C88.4998 20.644 88.5653 21.255 88.0797 21.386C87.274 21.6254 86.3071 21.6531 85.5934 21.1492C84.9729 20.6824 84.8463 19.8459 84.8349 19.1196C84.823 17.5712 84.8368 16.0235 84.828 14.4751C84.4268 14.4462 84.0129 14.5224 83.6198 14.4348C83.4063 14.1337 83.4119 13.6449 83.628 13.3495C84.0204 13.2758 84.4293 13.3362 84.8286 13.3192C84.845 12.6843 84.8053 12.0462 84.8469 11.4131Z" fill="white"/>
<path d="M38.2775 11.7777C39.3017 11.6158 40.4979 11.8552 41.1587 12.7251C41.628 13.3072 41.6872 14.0946 41.5789 14.8064C41.1052 16.892 38.9685 18.4007 36.8633 18.305C36.0601 18.2672 35.2242 17.9434 34.7436 17.2694C34.1748 16.482 34.1962 15.4004 34.5811 14.5393C35.2318 13.0728 36.6901 11.9869 38.2775 11.7777Z" fill="white"/>
<path d="M73.795 13.1655C74.573 13.1637 75.3862 13.3633 75.996 13.8666C76.3613 14.1495 76.3361 14.6811 76.2309 15.0824C76.0848 15.4068 75.7516 15.1221 75.5777 14.9797C74.8029 14.3397 73.6016 14.0751 72.7279 14.6679C71.9424 15.2506 71.7667 16.3095 71.7503 17.226C71.7352 18.0789 71.8221 19.0074 72.3676 19.7016C72.973 20.4537 74.1333 20.5249 74.9503 20.101C75.3591 19.9277 75.6665 19.5851 76.064 19.3974C76.3128 19.3627 76.304 19.7035 76.3229 19.8704C76.3632 20.2358 76.3078 20.6585 75.9626 20.8638C74.6473 21.7766 72.6599 21.8717 71.424 20.77C70.5673 19.9655 70.304 18.7347 70.2889 17.6021C70.2656 16.4481 70.4684 15.2122 71.2237 14.2975C71.8404 13.5359 72.8338 13.1693 73.795 13.1655Z" fill="white"/>
<path d="M111.98 13.1824C113.034 13.086 114.19 13.2504 115.016 13.9641C115.871 14.7061 116.203 15.8759 116.232 16.9732C116.284 18.1298 116.063 19.3625 115.321 20.2847C114.717 21.0444 113.767 21.4671 112.812 21.5452C111.765 21.6346 110.617 21.4652 109.799 20.7546C109.02 20.085 108.686 19.0438 108.61 18.0479C108.52 16.8756 108.664 15.6176 109.348 14.628C109.934 13.7638 110.951 13.2573 111.98 13.1824ZM112.031 14.349C110.668 14.4743 110.027 15.9433 110.054 17.1597C110.057 17.9131 110.1 18.7105 110.483 19.3795C111.246 20.7641 113.577 20.7263 114.33 19.3512C114.794 18.5203 114.817 17.5225 114.715 16.5997C114.635 15.9181 114.406 15.1943 113.845 14.7572C113.341 14.3509 112.654 14.2721 112.031 14.349Z" fill="white"/>
<path d="M123.001 13.1791C123.806 13.1136 124.69 13.2137 125.354 13.7082C125.562 13.9848 125.51 14.3929 125.433 14.7111C125.343 14.9145 125.118 14.7696 124.988 14.6953C124.272 14.2682 123.341 14.066 122.555 14.4169C121.912 14.7073 121.794 15.7025 122.369 16.1214C123.281 16.8333 124.571 16.9038 125.392 17.7567C126.312 18.7778 125.906 20.6077 124.663 21.1797C123.482 21.7523 122.026 21.6773 120.862 21.0953C120.383 20.8843 120.42 20.2556 120.534 19.8329C120.646 19.6036 120.914 19.8002 121.067 19.8821C121.894 20.398 122.979 20.6657 123.9 20.2411C124.555 19.957 124.734 18.9422 124.163 18.4887C123.337 17.8033 122.161 17.7372 121.355 17.0128C120.471 16.2884 120.432 14.8263 121.19 13.9992C121.654 13.4997 122.332 13.2383 123.001 13.1791Z" fill="white"/>
<path d="M135.154 13.8512C136.152 13.2452 137.374 13.0581 138.523 13.2087C139.161 13.2981 139.82 13.5532 140.22 14.0824C140.663 14.6707 140.741 15.4398 140.737 16.1535C140.73 17.8518 140.749 19.5507 140.728 21.2483C140.577 21.5494 140.131 21.438 139.852 21.4417C139.329 21.4203 139.6 20.762 139.537 20.4313C138.72 21.3346 137.428 21.7957 136.234 21.4713C135.283 21.2924 134.49 20.4622 134.458 19.4776C134.34 18.5573 134.827 17.6043 135.675 17.2074C136.803 16.6266 138.112 16.6978 139.344 16.6953C139.343 16.1258 139.388 15.518 139.124 14.9932C138.879 14.5258 138.334 14.3135 137.83 14.3022C136.981 14.2128 136.159 14.5315 135.435 14.9447C135.28 15.0197 135.038 15.1784 134.914 14.9762C134.748 14.6128 134.756 14.0635 135.154 13.8512ZM136.511 18.0402C135.795 18.4106 135.679 19.4789 136.201 20.0559C136.631 20.5113 137.34 20.5504 137.911 20.3879C138.479 20.2033 138.941 19.7857 139.326 19.3428C139.375 18.7998 139.331 18.2493 139.347 17.7038C138.402 17.7372 137.377 17.5721 136.511 18.0402Z" fill="white"/>
<path d="M64.5364 13.2256C65.6615 13.0512 66.9207 13.1683 67.8416 13.8965C68.6668 14.5516 69.041 15.6175 69.1185 16.6386C69.2205 17.8348 69.063 19.1198 68.3531 20.1214C67.7755 20.9497 66.7991 21.4392 65.8063 21.5356C64.7002 21.6496 63.47 21.4694 62.6278 20.6839C61.8221 19.933 61.5361 18.7967 61.4964 17.7308C61.4467 16.4382 61.7282 15.0171 62.7109 14.1006C63.213 13.6338 63.8624 13.3397 64.5364 13.2256ZM64.9119 14.3526C64.2397 14.4332 63.6337 14.8723 63.3421 15.4826C62.8892 16.4055 62.8961 17.4839 63.0668 18.4767C63.1884 19.2294 63.6501 19.974 64.3922 20.2417C65.315 20.5579 66.5018 20.3941 67.1002 19.5576C67.7093 18.7034 67.7308 17.5828 67.6199 16.5793C67.5386 15.8997 67.3056 15.1771 66.7405 14.7469C66.2297 14.3431 65.5386 14.27 64.9119 14.3526Z" fill="white"/>
<path d="M89.8901 14.0049C90.8186 13.3415 92.0249 13.1305 93.1467 13.2219C93.9379 13.283 94.7946 13.5815 95.2192 14.2997C95.5864 14.9101 95.6211 15.6483 95.6205 16.3425C95.611 17.9935 95.6356 19.6471 95.6085 21.2975C95.4353 21.596 94.9874 21.4877 94.6964 21.4814C94.2195 21.4184 94.4784 20.8055 94.4154 20.4817C93.4189 21.6093 91.6431 21.9771 90.331 21.1973C89.3427 20.619 89.0863 19.2502 89.543 18.2543C89.8365 17.6332 90.4513 17.2319 91.0882 17.026C92.0979 16.6896 93.1764 16.7425 94.2252 16.7393C94.2397 16.163 94.263 15.545 93.9927 15.0184C93.7301 14.5239 93.1373 14.34 92.6107 14.3387C91.7408 14.2675 90.9257 14.6436 90.1836 15.0524C89.5984 15.3365 89.5675 14.2682 89.8901 14.0049ZM91.3483 18.1082C90.4992 18.5856 90.5836 20.059 91.514 20.3954C92.5326 20.803 93.6274 20.1693 94.2151 19.3485C94.2409 18.8162 94.2189 18.282 94.2246 17.7491C93.2658 17.7806 92.2189 17.6093 91.3483 18.1082Z" fill="white"/>
<path d="M77.7609 13.3342C79.2009 13.2933 80.646 13.3311 82.0885 13.316C82.2813 13.3122 82.549 13.3078 82.6202 13.5352C82.7216 13.9749 82.6806 14.4681 82.4261 14.8524C81.2879 16.6489 80.132 18.4341 78.9943 20.2306C80.1307 20.2275 81.2671 20.2319 82.4041 20.2281C83.0888 20.0788 83.0901 21.5616 82.4035 21.4086C80.9112 21.4042 79.4189 21.4086 77.9272 21.4067C77.7395 21.4212 77.531 21.3198 77.4939 21.122C77.4258 20.7037 77.4498 20.247 77.6948 19.8861C78.8425 18.0857 80.006 16.2942 81.1543 14.4939C80.0312 14.4757 78.9017 14.5229 77.7824 14.4706C77.4913 14.2187 77.4932 13.6026 77.7609 13.3342Z" fill="white"/>
</g>
<defs>
<clipPath id="clip0_430_492">
<rect width="151.37" height="32" fill="white" transform="translate(0.449463 0.531738)"/>
</clipPath>
</defs>
</svg>
