<svg width="62" height="32" viewBox="0 0 62 32" fill="none" xmlns="http://www.w3.org/2000/svg">
<g clip-path="url(#clip0_186_756)">
<path d="M19.6694 32C16.8672 32 14.582 29.7803 14.582 27.0586C14.582 24.3369 16.8672 22.1172 19.6694 22.1172C22.4715 22.1172 24.7567 24.3369 24.7567 27.0586C24.7567 29.7803 22.4715 32 19.6694 32ZM19.6694 23.6631C17.7378 23.6631 16.1599 25.1957 16.1599 27.0718C16.1599 28.948 17.7378 30.4806 19.6694 30.4806C21.6009 30.4806 23.1788 28.948 23.1788 27.0718C23.1788 25.1957 21.6009 23.6631 19.6694 23.6631Z" fill="#2D8ECD"/>
<path d="M51.3217 32C48.5196 32 46.2344 29.7803 46.2344 27.0586C46.2344 24.3369 48.5196 22.1172 51.3217 22.1172C54.1238 22.1172 56.409 24.3369 56.409 27.0586C56.409 29.7803 54.1238 32 51.3217 32ZM51.3217 23.6631C49.3901 23.6631 47.8123 25.1957 47.8123 27.0718C47.8123 28.948 49.3901 30.4806 51.3217 30.4806C53.2532 30.4806 54.8311 28.948 54.8311 27.0718C54.8311 25.1957 53.2532 23.6631 51.3217 23.6631Z" fill="#2D8ECD"/>
<path d="M61.211 27.8249H55.6068C55.1715 27.8249 54.8179 27.4814 54.8179 27.0586C54.8179 26.6358 55.1715 26.2923 55.6068 26.2923H60.4221V14.4013L57.2799 5.4302H45.0105V26.2923H47.0237C47.4589 26.2923 47.8126 26.6358 47.8126 27.0586C47.8126 27.4814 47.4589 27.8249 47.0237 27.8249H44.2216C43.7863 27.8249 43.4326 27.4814 43.4326 27.0586V4.66389C43.4326 4.2411 43.7863 3.89758 44.2216 3.89758H57.8512C58.1913 3.89758 58.4905 4.10898 58.5994 4.41286L61.9592 14.0181C61.9864 14.0974 62 14.1767 62 14.2692V27.0586C62 27.4814 61.6463 27.8249 61.211 27.8249Z" fill="#2D8ECD"/>
<path d="M44.2217 27.8249H23.9677C23.5324 27.8249 23.1787 27.4814 23.1787 27.0586C23.1787 26.6358 23.5324 26.2923 23.9677 26.2923H44.2217C44.657 26.2923 45.0107 26.6358 45.0107 27.0586C45.0107 27.4814 44.657 27.8249 44.2217 27.8249Z" fill="#2D8ECD"/>
<path d="M15.3845 27.8249H8.47449C8.03921 27.8249 7.68555 27.4814 7.68555 27.0586V0.766309C7.68555 0.343518 8.03921 0 8.47449 0H40.4811C40.9164 0 41.27 0.343518 41.27 0.766309V22.3683H44.2217C44.657 22.3683 45.0107 22.7118 45.0107 23.1346C45.0107 23.5574 44.657 23.9009 44.2217 23.9009H40.4675C40.0322 23.9009 39.6785 23.5574 39.6785 23.1346V1.53262H9.26343V26.2923H15.3845C15.8198 26.2923 16.1735 26.6358 16.1735 27.0586C16.1735 27.4814 15.8198 27.8249 15.3845 27.8249Z" fill="#2D8ECD"/>
<path d="M61.2113 15.0487H49.6356C49.2003 15.0487 48.8467 14.7052 48.8467 14.2824V4.66389C48.8467 4.2411 49.2003 3.89758 49.6356 3.89758C50.0709 3.89758 50.4246 4.2411 50.4246 4.66389V13.5029H61.2113C61.6466 13.5029 62.0003 13.8464 62.0003 14.2692C62.0003 14.692 61.6466 15.0355 61.2113 15.0355V15.0487Z" fill="#2D8ECD"/>
<path d="M61.2108 23.6631H60.0409C58.3406 23.6631 56.9668 22.3154 56.9668 20.6771C56.9668 19.0388 58.3406 17.6912 60.0409 17.6912H61.2108C61.646 17.6912 61.9997 18.0347 61.9997 18.4575V22.8968C61.9997 23.3196 61.646 23.6631 61.2108 23.6631ZM60.0409 19.2238C59.2112 19.2238 58.5447 19.8712 58.5447 20.6771C58.5447 21.4831 59.2112 22.1305 60.0409 22.1305H60.4218V19.2238H60.0409Z" fill="#2D8ECD"/>
<path d="M40.4812 23.9141H21.1249C20.6896 23.9141 20.3359 23.5706 20.3359 23.1478C20.3359 22.725 20.6896 22.3815 21.1249 22.3815H40.4812C40.9165 22.3815 41.2701 22.725 41.2701 23.1478C41.2701 23.5706 40.9165 23.9141 40.4812 23.9141Z" fill="#2D8ECD"/>
<path d="M18.2138 23.9141H8.47449C8.03921 23.9141 7.68555 23.5706 7.68555 23.1478C7.68555 22.725 8.03921 22.3815 8.47449 22.3815H18.2138C18.6491 22.3815 19.0028 22.725 19.0028 23.1478C19.0028 23.5706 18.6491 23.9141 18.2138 23.9141Z" fill="#2D8ECD"/>
<path d="M11.3579 32H8.99109C8.55581 32 8.20215 31.6565 8.20215 31.2337C8.20215 30.8109 8.55581 30.4674 8.99109 30.4674H11.3579C11.7932 30.4674 12.1469 30.8109 12.1469 31.2337C12.1469 31.6565 11.7932 32 11.3579 32Z" fill="#2D8ECD"/>
<path d="M3.15577 32H0.788942C0.353664 32 0 31.6565 0 31.2337C0 30.8109 0.353664 30.4674 0.788942 30.4674H3.15577C3.59105 30.4674 3.94471 30.8109 3.94471 31.2337C3.94471 31.6565 3.59105 32 3.15577 32Z" fill="#2D8ECD"/>
<path d="M61.2113 32H11.3583C10.923 32 10.5693 31.6565 10.5693 31.2337C10.5693 30.8109 10.923 30.4674 11.3583 30.4674H61.2113C61.6466 30.4674 62.0002 30.8109 62.0002 31.2337C62.0002 31.6565 61.6466 32 61.2113 32Z" fill="#2D8ECD"/>
<path d="M52.9545 12.0099C52.7504 12.0099 52.5464 11.9306 52.3968 11.7853C52.0839 11.4814 52.0839 11.0058 52.3968 10.7019L56.0422 7.16102C56.3551 6.85714 56.8448 6.85714 57.1576 7.16102C57.4705 7.4649 57.4705 7.94054 57.1576 8.24442L53.5122 11.7853C53.3625 11.9306 53.1585 12.0099 52.9545 12.0099Z" fill="#2D8ECD"/>
</g>
<defs>
<clipPath id="clip0_186_756">
<rect width="62" height="32" fill="white"/>
</clipPath>
</defs>
</svg>
