<svg width="28" height="33" viewBox="0 0 28 33" fill="none" xmlns="http://www.w3.org/2000/svg">
<g clip-path="url(#clip0_430_436)">
<path fill-rule="evenodd" clip-rule="evenodd" d="M1.07251 10.2044L1.18699 23.1984L4.10637 26.8047L12.8648 31.4414L23.6265 26.175L25.859 20.8514L25.6301 3.6211L17.5015 3.39212L9.0296 4.76595L1.30182 9.23087L1.07251 10.2044Z" fill="#301506"/>
<path d="M13.6123 0.814223C8.51072 0.814223 4.0607 1.80191 0.385132 3.74967V19.3214C0.385132 22.598 1.61626 25.3379 3.94479 27.2467C6.10681 29.0202 12.7932 31.9428 13.6126 32.2978C14.3896 31.9596 21.1553 28.9918 23.283 27.2467C25.6102 25.3389 26.8416 22.5982 26.8416 19.3214V3.74967C23.1655 1.80165 18.7155 0.813965 13.6119 0.813965L13.6123 0.814223ZM21.1664 3.82933C22.6877 3.84923 24.1815 3.94321 25.6255 4.0774V19.3213C25.6255 22.2507 24.5626 24.617 22.5116 26.3064C20.6793 27.8153 15.1543 30.2907 13.6126 30.9702C12.0502 30.2815 6.51134 27.7748 4.71202 26.307C2.67318 24.6465 1.59999 22.224 1.59999 19.3219V10.4146C7.45901 5.04145 14.5737 3.74346 21.1658 3.82968L21.1664 3.82933ZM13.9572 10.9275C12.702 10.9275 11.6892 11.2081 10.8554 11.7463V26.7444H13.1576V21.899C13.3873 21.9668 13.7208 22.0301 14.1932 22.0301C16.747 22.0301 18.2148 19.728 18.2148 16.3667C18.2148 13.0121 16.7034 10.9275 13.9573 10.9275L13.9572 10.9275ZM21.8236 10.9275C20.3096 10.9714 18.7262 12.0682 18.7359 13.9275C18.7397 15.1517 19.0791 16.0673 20.9765 17.1806C21.9891 17.775 22.3971 18.1666 22.4145 18.8888C22.4339 19.6917 21.8792 20.1758 21.035 20.1725C20.3006 20.1667 19.4226 19.7591 18.8347 19.2357V21.3543C19.5555 21.7842 20.4551 22.0683 21.3637 22.0683C23.6381 22.0683 24.6536 20.4618 24.6975 18.9896C24.7408 17.6478 24.37 16.6326 22.4467 15.5026C21.5884 14.9992 20.9105 14.6683 20.9331 13.8306C20.9557 13.0129 21.6346 12.7256 22.2864 12.7314C23.0906 12.7385 23.8684 13.1839 24.3486 13.6763V11.6757C23.944 11.3639 23.0872 10.8887 21.8236 10.9274L21.8236 10.9275ZM2.77562 11.1604V18.3949C2.77562 20.8338 3.9293 22.0685 6.2062 22.0685C7.61509 22.0685 8.7951 21.7424 9.67411 21.1448V11.1605H7.37697V19.8349C7.12656 20.0066 6.75513 20.1162 6.28788 20.1162C5.23333 20.1162 5.07575 19.1492 5.07575 18.4967V11.1606H2.77557L2.77562 11.1604ZM13.9727 12.7809C15.308 12.7809 15.8614 13.847 15.8614 16.4253C15.8614 18.941 15.2285 20.1565 13.9041 20.1565C13.5924 20.1565 13.3215 20.0792 13.1569 20.0173V12.9475C13.3434 12.8546 13.6603 12.7812 13.9727 12.7812V12.7809Z" fill="#FAB80A"/>
</g>
<defs>
<clipPath id="clip0_430_436">
<rect width="26.9727" height="32" fill="white" transform="translate(0.152832 0.531738)"/>
</clipPath>
</defs>
</svg>
