<svg width="63" height="21" viewBox="0 0 63 21" fill="none" xmlns="http://www.w3.org/2000/svg">
<g clip-path="url(#clip0_430_397)">
<path d="M27.2889 20.2433H22.2665L25.4079 0.882812H30.43L27.2889 20.2433Z" fill="#00579F"/>
<path d="M45.4957 1.35599C44.505 0.96426 42.9338 0.531738 40.991 0.531738C36.0311 0.531738 32.5385 3.16793 32.5171 6.93689C32.4759 9.71762 35.0177 11.2621 36.9188 12.1893C38.8619 13.1367 39.5224 13.7551 39.5224 14.5996C39.5026 15.8966 37.9523 16.4945 36.5063 16.4945C34.5011 16.4945 33.4267 16.1863 31.7939 15.4647L31.1326 15.1553L30.4297 19.5014C31.6077 20.0363 33.7779 20.5109 36.0311 20.5317C41.301 20.5317 44.7319 17.9363 44.7725 13.9199C44.7926 11.716 43.4504 10.0272 40.5567 8.64726C38.8001 7.76142 37.7243 7.1641 37.7243 6.25772C37.7449 5.43374 38.6342 4.58977 40.6172 4.58977C42.2499 4.54844 43.4496 4.93962 44.3584 5.33108L44.8126 5.53667L45.4957 1.35599Z" fill="#00579F"/>
<path d="M52.1709 13.3846C52.5845 12.2724 54.1761 7.96768 54.1761 7.96768C54.1552 8.00901 54.5889 6.83491 54.8369 6.11413L55.1879 7.78235C55.1879 7.78235 56.139 12.4166 56.3455 13.3846C55.5606 13.3846 53.1629 13.3846 52.1709 13.3846ZM58.3705 0.882812H54.4856C53.2876 0.882812 52.3775 1.23266 51.8606 2.48916L44.4004 20.2431H49.6703C49.6703 20.2431 50.5379 17.8535 50.7244 17.3389C51.3025 17.3389 56.429 17.3389 57.1728 17.3389C57.3169 18.0186 57.772 20.2431 57.772 20.2431H62.4223L58.3705 0.882812Z" fill="#00579F"/>
<path d="M18.0715 0.882812L13.1529 14.0848L12.6155 11.4073C11.7061 8.3178 8.85419 4.96111 5.6716 3.29207L10.1769 20.2228H15.488L23.3824 0.882812H18.0715Z" fill="#00579F"/>
<path d="M8.58558 0.882812H0.50497L0.422302 1.274C6.72568 2.88062 10.9003 6.75333 12.6154 11.4081L10.8588 2.51024C10.5696 1.27372 9.68086 0.923601 8.58558 0.882812Z" fill="#FAA61A"/>
</g>
<defs>
<clipPath id="clip0_430_397">
<rect width="62" height="20" fill="white" transform="translate(0.422302 0.531738)"/>
</clipPath>
</defs>
</svg>
